solid ScintillatorOnlyASCII
  facet normal -1.000000 0.000000 0.000000
    outer loop
      vertex -322.999786 13.499981 424.999969
      vertex -322.999786 -13.500018 424.999969
      vertex -322.999786 -13.500023 525.000000
    endloop
  endfacet
  facet normal -1.000000 0.000000 0.000000
    outer loop
      vertex -322.999786 13.499981 424.999969
      vertex -322.999786 -13.500023 525.000000
      vertex -322.999786 13.499976 525.000000
    endloop
  endfacet
  facet normal 0.000000 0.000000 1.000000
    outer loop
      vertex -322.999786 13.499976 525.000000
      vertex -322.999786 -13.500023 525.000000
      vertex 1193.000122 -13.500023 525.000000
    endloop
  endfacet
  facet normal -0.000000 0.000000 1.000000
    outer loop
      vertex -322.999786 13.499976 525.000000
      vertex 1193.000122 -13.500023 525.000000
      vertex 1193.000122 13.499976 525.000000
    endloop
  endfacet
  facet normal 1.000000 0.000000 0.000000
    outer loop
      vertex 1193.000122 13.499976 525.000000
      vertex 1193.000122 -13.500023 525.000000
      vertex 1193.000122 -13.500018 424.999969
    endloop
  endfacet
  facet normal 1.000000 0.000000 0.000000
    outer loop
      vertex 1193.000122 13.499976 525.000000
      vertex 1193.000122 -13.500018 424.999969
      vertex 1193.000122 13.499981 424.999969
    endloop
  endfacet
  facet normal 0.000000 -0.000000 -1.000000
    outer loop
      vertex 1193.000122 13.499981 424.999969
      vertex 1193.000122 -13.500018 424.999969
      vertex -322.999786 -13.500018 424.999969
    endloop
  endfacet
  facet normal -0.000000 0.000000 -1.000000
    outer loop
      vertex 1193.000122 13.499981 424.999969
      vertex -322.999786 -13.500018 424.999969
      vertex -322.999786 13.499981 424.999969
    endloop
  endfacet
  facet normal -0.000000 1.000000 0.000000
    outer loop
      vertex -322.999786 13.499976 525.000000
      vertex 1193.000122 13.499976 525.000000
      vertex 1193.000122 13.499981 424.999969
    endloop
  endfacet
  facet normal 0.000000 1.000000 0.000000
    outer loop
      vertex -322.999786 13.499976 525.000000
      vertex 1193.000122 13.499981 424.999969
      vertex -322.999786 13.499981 424.999969
    endloop
  endfacet
  facet normal -0.000000 -1.000000 -0.000000
    outer loop
      vertex 1193.000122 -13.500023 525.000000
      vertex -322.999786 -13.500023 525.000000
      vertex -322.999786 -13.500018 424.999969
    endloop
  endfacet
  facet normal 0.000000 -1.000000 -0.000000
    outer loop
      vertex 1193.000122 -13.500023 525.000000
      vertex -322.999786 -13.500018 424.999969
      vertex 1193.000122 -13.500018 424.999969
    endloop
  endfacet
  facet normal -1.000000 0.000000 0.000000
    outer loop
      vertex -322.999786 13.499976 525.000000
      vertex -322.999786 -13.500023 525.000000
      vertex -322.999786 -13.500027 624.999939
    endloop
  endfacet
  facet normal -1.000000 0.000000 0.000000
    outer loop
      vertex -322.999786 13.499976 525.000000
      vertex -322.999786 -13.500027 624.999939
      vertex -322.999786 13.499972 624.999939
    endloop
  endfacet
  facet normal 0.000000 0.000000 1.000000
    outer loop
      vertex -322.999786 13.499972 624.999939
      vertex -322.999786 -13.500027 624.999939
      vertex 1193.000122 -13.500027 624.999939
    endloop
  endfacet
  facet normal -0.000000 0.000000 1.000000
    outer loop
      vertex -322.999786 13.499972 624.999939
      vertex 1193.000122 -13.500027 624.999939
      vertex 1193.000122 13.499972 624.999939
    endloop
  endfacet
  facet normal 1.000000 0.000000 0.000000
    outer loop
      vertex 1193.000122 13.499972 624.999939
      vertex 1193.000122 -13.500027 624.999939
      vertex 1193.000122 -13.500023 525.000000
    endloop
  endfacet
  facet normal 1.000000 0.000000 0.000000
    outer loop
      vertex 1193.000122 13.499972 624.999939
      vertex 1193.000122 -13.500023 525.000000
      vertex 1193.000122 13.499976 525.000000
    endloop
  endfacet
  facet normal 0.000000 -0.000000 -1.000000
    outer loop
      vertex 1193.000122 13.499976 525.000000
      vertex 1193.000122 -13.500023 525.000000
      vertex -322.999786 -13.500023 525.000000
    endloop
  endfacet
  facet normal -0.000000 0.000000 -1.000000
    outer loop
      vertex 1193.000122 13.499976 525.000000
      vertex -322.999786 -13.500023 525.000000
      vertex -322.999786 13.499976 525.000000
    endloop
  endfacet
  facet normal -0.000000 1.000000 0.000000
    outer loop
      vertex -322.999786 13.499972 624.999939
      vertex 1193.000122 13.499972 624.999939
      vertex 1193.000122 13.499976 525.000000
    endloop
  endfacet
  facet normal 0.000000 1.000000 0.000000
    outer loop
      vertex -322.999786 13.499972 624.999939
      vertex 1193.000122 13.499976 525.000000
      vertex -322.999786 13.499976 525.000000
    endloop
  endfacet
  facet normal -0.000000 -1.000000 -0.000000
    outer loop
      vertex 1193.000122 -13.500027 624.999939
      vertex -322.999786 -13.500027 624.999939
      vertex -322.999786 -13.500023 525.000000
    endloop
  endfacet
  facet normal 0.000000 -1.000000 -0.000000
    outer loop
      vertex 1193.000122 -13.500027 624.999939
      vertex -322.999786 -13.500023 525.000000
      vertex 1193.000122 -13.500023 525.000000
    endloop
  endfacet
  facet normal -1.000000 0.000000 0.000000
    outer loop
      vertex -322.999786 13.499986 325.000000
      vertex -322.999786 -13.500013 325.000000
      vertex -322.999786 -13.500018 424.999969
    endloop
  endfacet
  facet normal -1.000000 0.000000 0.000000
    outer loop
      vertex -322.999786 13.499986 325.000000
      vertex -322.999786 -13.500018 424.999969
      vertex -322.999786 13.499981 424.999969
    endloop
  endfacet
  facet normal 0.000000 0.000000 1.000000
    outer loop
      vertex -322.999786 13.499981 424.999969
      vertex -322.999786 -13.500018 424.999969
      vertex 1193.000122 -13.500018 424.999969
    endloop
  endfacet
  facet normal -0.000000 0.000000 1.000000
    outer loop
      vertex -322.999786 13.499981 424.999969
      vertex 1193.000122 -13.500018 424.999969
      vertex 1193.000122 13.499981 424.999969
    endloop
  endfacet
  facet normal 1.000000 0.000000 0.000000
    outer loop
      vertex 1193.000122 13.499981 424.999969
      vertex 1193.000122 -13.500018 424.999969
      vertex 1193.000122 -13.500013 325.000000
    endloop
  endfacet
  facet normal 1.000000 0.000000 0.000000
    outer loop
      vertex 1193.000122 13.499981 424.999969
      vertex 1193.000122 -13.500013 325.000000
      vertex 1193.000122 13.499986 325.000000
    endloop
  endfacet
  facet normal 0.000000 -0.000000 -1.000000
    outer loop
      vertex 1193.000122 13.499986 325.000000
      vertex 1193.000122 -13.500013 325.000000
      vertex -322.999786 -13.500013 325.000000
    endloop
  endfacet
  facet normal -0.000000 0.000000 -1.000000
    outer loop
      vertex 1193.000122 13.499986 325.000000
      vertex -322.999786 -13.500013 325.000000
      vertex -322.999786 13.499986 325.000000
    endloop
  endfacet
  facet normal -0.000000 1.000000 0.000000
    outer loop
      vertex -322.999786 13.499981 424.999969
      vertex 1193.000122 13.499981 424.999969
      vertex 1193.000122 13.499986 325.000000
    endloop
  endfacet
  facet normal 0.000000 1.000000 0.000000
    outer loop
      vertex -322.999786 13.499981 424.999969
      vertex 1193.000122 13.499986 325.000000
      vertex -322.999786 13.499986 325.000000
    endloop
  endfacet
  facet normal -0.000000 -1.000000 -0.000000
    outer loop
      vertex 1193.000122 -13.500018 424.999969
      vertex -322.999786 -13.500018 424.999969
      vertex -322.999786 -13.500013 325.000000
    endloop
  endfacet
  facet normal 0.000000 -1.000000 -0.000000
    outer loop
      vertex 1193.000122 -13.500018 424.999969
      vertex -322.999786 -13.500013 325.000000
      vertex 1193.000122 -13.500013 325.000000
    endloop
  endfacet
  facet normal 0.000000 1.000000 0.000000
    outer loop
      vertex -424.999786 13.500013 -327.000031
      vertex -424.999878 13.499969 677.000000
      vertex -324.999847 13.499969 677.000000
    endloop
  endfacet
  facet normal -0.000000 1.000000 0.000000
    outer loop
      vertex -424.999786 13.500013 -327.000031
      vertex -324.999847 13.499969 677.000000
      vertex -324.999847 13.500013 -327.000031
    endloop
  endfacet
  facet normal 0.000000 -0.000000 -1.000000
    outer loop
      vertex -324.999847 13.500013 -327.000031
      vertex -324.999847 -13.499986 -327.000031
      vertex -424.999786 -13.499986 -327.000031
    endloop
  endfacet
  facet normal -0.000000 0.000000 -1.000000
    outer loop
      vertex -324.999847 13.500013 -327.000031
      vertex -424.999786 -13.499986 -327.000031
      vertex -424.999786 13.500013 -327.000031
    endloop
  endfacet
  facet normal 1.000000 0.000000 0.000000
    outer loop
      vertex -324.999847 13.499969 677.000000
      vertex -324.999847 -13.500030 677.000000
      vertex -324.999847 -13.499986 -327.000031
    endloop
  endfacet
  facet normal 1.000000 0.000000 0.000000
    outer loop
      vertex -324.999847 13.499969 677.000000
      vertex -324.999847 -13.499986 -327.000031
      vertex -324.999847 13.500013 -327.000031
    endloop
  endfacet
  facet normal 0.000000 0.000000 1.000000
    outer loop
      vertex -424.999878 13.499969 677.000000
      vertex -424.999878 -13.500030 677.000000
      vertex -324.999847 -13.500030 677.000000
    endloop
  endfacet
  facet normal -0.000000 0.000000 1.000000
    outer loop
      vertex -424.999878 13.499969 677.000000
      vertex -324.999847 -13.500030 677.000000
      vertex -324.999847 13.499969 677.000000
    endloop
  endfacet
  facet normal 0.000000 -1.000000 -0.000000
    outer loop
      vertex -424.999878 -13.500030 677.000000
      vertex -424.999786 -13.499986 -327.000031
      vertex -324.999847 -13.499986 -327.000031
    endloop
  endfacet
  facet normal 0.000000 -1.000000 -0.000000
    outer loop
      vertex -424.999878 -13.500030 677.000000
      vertex -324.999847 -13.499986 -327.000031
      vertex -324.999847 -13.500030 677.000000
    endloop
  endfacet
  facet normal -1.000000 -0.000000 -0.000000
    outer loop
      vertex -424.999786 13.500013 -327.000031
      vertex -424.999786 -13.499986 -327.000031
      vertex -424.999878 -13.500030 677.000000
    endloop
  endfacet
  facet normal -1.000000 0.000000 -0.000000
    outer loop
      vertex -424.999786 13.500013 -327.000031
      vertex -424.999878 -13.500030 677.000000
      vertex -424.999878 13.499969 677.000000
    endloop
  endfacet
  facet normal 0.000000 -0.000000 -1.000000
    outer loop
      vertex -424.999786 13.500013 -327.000031
      vertex -424.999786 -13.499986 -327.000031
      vertex -524.999817 -13.499986 -327.000031
    endloop
  endfacet
  facet normal -0.000000 0.000000 -1.000000
    outer loop
      vertex -424.999786 13.500013 -327.000031
      vertex -524.999817 -13.499986 -327.000031
      vertex -524.999817 13.500013 -327.000031
    endloop
  endfacet
  facet normal -1.000000 -0.000000 -0.000000
    outer loop
      vertex -524.999817 13.500013 -327.000031
      vertex -524.999817 -13.499986 -327.000031
      vertex -524.999939 -13.500030 677.000000
    endloop
  endfacet
  facet normal -1.000000 0.000000 -0.000000
    outer loop
      vertex -524.999817 13.500013 -327.000031
      vertex -524.999939 -13.500030 677.000000
      vertex -524.999939 13.499969 677.000000
    endloop
  endfacet
  facet normal 0.000000 0.000000 1.000000
    outer loop
      vertex -524.999939 13.499969 677.000000
      vertex -524.999939 -13.500030 677.000000
      vertex -424.999878 -13.500030 677.000000
    endloop
  endfacet
  facet normal -0.000000 0.000000 1.000000
    outer loop
      vertex -524.999939 13.499969 677.000000
      vertex -424.999878 -13.500030 677.000000
      vertex -424.999878 13.499969 677.000000
    endloop
  endfacet
  facet normal 1.000000 0.000000 0.000000
    outer loop
      vertex -424.999878 13.499969 677.000000
      vertex -424.999878 -13.500030 677.000000
      vertex -424.999786 -13.499986 -327.000031
    endloop
  endfacet
  facet normal 1.000000 0.000000 0.000000
    outer loop
      vertex -424.999878 13.499969 677.000000
      vertex -424.999786 -13.499986 -327.000031
      vertex -424.999786 13.500013 -327.000031
    endloop
  endfacet
  facet normal 0.000000 1.000000 0.000000
    outer loop
      vertex -524.999817 13.500013 -327.000031
      vertex -524.999939 13.499969 677.000000
      vertex -424.999878 13.499969 677.000000
    endloop
  endfacet
  facet normal -0.000000 1.000000 0.000000
    outer loop
      vertex -524.999817 13.500013 -327.000031
      vertex -424.999878 13.499969 677.000000
      vertex -424.999786 13.500013 -327.000031
    endloop
  endfacet
  facet normal 0.000000 -1.000000 -0.000000
    outer loop
      vertex -524.999939 -13.500030 677.000000
      vertex -524.999817 -13.499986 -327.000031
      vertex -424.999786 -13.499986 -327.000031
    endloop
  endfacet
  facet normal 0.000000 -1.000000 -0.000000
    outer loop
      vertex -524.999939 -13.500030 677.000000
      vertex -424.999786 -13.499986 -327.000031
      vertex -424.999878 -13.500030 677.000000
    endloop
  endfacet
  facet normal 0.000000 1.000000 0.000000
    outer loop
      vertex -624.999878 13.500013 -327.000031
      vertex -624.999878 13.499969 677.000061
      vertex -524.999939 13.499969 677.000061
    endloop
  endfacet
  facet normal -0.000000 1.000000 0.000000
    outer loop
      vertex -624.999878 13.500013 -327.000031
      vertex -524.999939 13.499969 677.000061
      vertex -524.999817 13.500013 -327.000031
    endloop
  endfacet
  facet normal 0.000000 -0.000000 -1.000000
    outer loop
      vertex -524.999817 13.500013 -327.000031
      vertex -524.999817 -13.499986 -327.000031
      vertex -624.999878 -13.499986 -327.000031
    endloop
  endfacet
  facet normal -0.000000 0.000000 -1.000000
    outer loop
      vertex -524.999817 13.500013 -327.000031
      vertex -624.999878 -13.499986 -327.000031
      vertex -624.999878 13.500013 -327.000031
    endloop
  endfacet
  facet normal 1.000000 0.000000 0.000000
    outer loop
      vertex -524.999939 13.499969 677.000061
      vertex -524.999939 -13.500030 677.000061
      vertex -524.999817 -13.499986 -327.000031
    endloop
  endfacet
  facet normal 1.000000 0.000000 0.000000
    outer loop
      vertex -524.999939 13.499969 677.000061
      vertex -524.999817 -13.499986 -327.000031
      vertex -524.999817 13.500013 -327.000031
    endloop
  endfacet
  facet normal 0.000000 0.000000 1.000000
    outer loop
      vertex -624.999878 13.499969 677.000061
      vertex -624.999878 -13.500030 677.000061
      vertex -524.999939 -13.500030 677.000061
    endloop
  endfacet
  facet normal -0.000000 0.000000 1.000000
    outer loop
      vertex -624.999878 13.499969 677.000061
      vertex -524.999939 -13.500030 677.000061
      vertex -524.999939 13.499969 677.000061
    endloop
  endfacet
  facet normal 0.000000 -1.000000 -0.000000
    outer loop
      vertex -624.999878 -13.500030 677.000061
      vertex -624.999878 -13.499986 -327.000031
      vertex -524.999817 -13.499986 -327.000031
    endloop
  endfacet
  facet normal 0.000000 -1.000000 -0.000000
    outer loop
      vertex -624.999878 -13.500030 677.000061
      vertex -524.999817 -13.499986 -327.000031
      vertex -524.999939 -13.500030 677.000061
    endloop
  endfacet
  facet normal -1.000000 0.000000 0.000000
    outer loop
      vertex -624.999878 13.500013 -327.000031
      vertex -624.999878 -13.499986 -327.000031
      vertex -624.999878 -13.500030 677.000061
    endloop
  endfacet
  facet normal -1.000000 0.000000 0.000000
    outer loop
      vertex -624.999878 13.500013 -327.000031
      vertex -624.999878 -13.500030 677.000061
      vertex -624.999878 13.499969 677.000061
    endloop
  endfacet
  facet normal -1.000000 0.000000 0.000000
    outer loop
      vertex -1192.999756 13.500023 -525.000000
      vertex -1192.999756 -13.499976 -525.000000
      vertex -1192.999756 -13.499981 -424.999969
    endloop
  endfacet
  facet normal -1.000000 0.000000 0.000000
    outer loop
      vertex -1192.999756 13.500023 -525.000000
      vertex -1192.999756 -13.499981 -424.999969
      vertex -1192.999756 13.500018 -424.999969
    endloop
  endfacet
  facet normal 0.000000 0.000000 1.000000
    outer loop
      vertex -1192.999756 13.500018 -424.999969
      vertex -1192.999756 -13.499981 -424.999969
      vertex 323.000153 -13.499981 -424.999969
    endloop
  endfacet
  facet normal -0.000000 0.000000 1.000000
    outer loop
      vertex -1192.999756 13.500018 -424.999969
      vertex 323.000153 -13.499981 -424.999969
      vertex 323.000153 13.500018 -424.999969
    endloop
  endfacet
  facet normal 1.000000 0.000000 0.000000
    outer loop
      vertex 323.000153 13.500018 -424.999969
      vertex 323.000153 -13.499981 -424.999969
      vertex 323.000153 -13.499976 -525.000000
    endloop
  endfacet
  facet normal 1.000000 0.000000 0.000000
    outer loop
      vertex 323.000153 13.500018 -424.999969
      vertex 323.000153 -13.499976 -525.000000
      vertex 323.000153 13.500023 -525.000000
    endloop
  endfacet
  facet normal 0.000000 -0.000000 -1.000000
    outer loop
      vertex 323.000153 13.500023 -525.000000
      vertex 323.000153 -13.499976 -525.000000
      vertex -1192.999756 -13.499976 -525.000000
    endloop
  endfacet
  facet normal -0.000000 0.000000 -1.000000
    outer loop
      vertex 323.000153 13.500023 -525.000000
      vertex -1192.999756 -13.499976 -525.000000
      vertex -1192.999756 13.500023 -525.000000
    endloop
  endfacet
  facet normal -0.000000 1.000000 0.000000
    outer loop
      vertex -1192.999756 13.500018 -424.999969
      vertex 323.000153 13.500018 -424.999969
      vertex 323.000153 13.500023 -525.000000
    endloop
  endfacet
  facet normal 0.000000 1.000000 0.000000
    outer loop
      vertex -1192.999756 13.500018 -424.999969
      vertex 323.000153 13.500023 -525.000000
      vertex -1192.999756 13.500023 -525.000000
    endloop
  endfacet
  facet normal -0.000000 -1.000000 -0.000000
    outer loop
      vertex 323.000153 -13.499981 -424.999969
      vertex -1192.999756 -13.499981 -424.999969
      vertex -1192.999756 -13.499976 -525.000000
    endloop
  endfacet
  facet normal 0.000000 -1.000000 -0.000000
    outer loop
      vertex 323.000153 -13.499981 -424.999969
      vertex -1192.999756 -13.499976 -525.000000
      vertex 323.000153 -13.499976 -525.000000
    endloop
  endfacet
  facet normal -1.000000 0.000000 0.000000
    outer loop
      vertex -1192.999756 13.500018 -424.999969
      vertex -1192.999756 -13.499981 -424.999969
      vertex -1192.999756 -13.499986 -325.000000
    endloop
  endfacet
  facet normal -1.000000 0.000000 0.000000
    outer loop
      vertex -1192.999756 13.500018 -424.999969
      vertex -1192.999756 -13.499986 -325.000000
      vertex -1192.999756 13.500013 -325.000000
    endloop
  endfacet
  facet normal 0.000000 0.000000 1.000000
    outer loop
      vertex -1192.999756 13.500013 -325.000000
      vertex -1192.999756 -13.499986 -325.000000
      vertex 323.000153 -13.499986 -325.000000
    endloop
  endfacet
  facet normal -0.000000 0.000000 1.000000
    outer loop
      vertex -1192.999756 13.500013 -325.000000
      vertex 323.000153 -13.499986 -325.000000
      vertex 323.000153 13.500013 -325.000000
    endloop
  endfacet
  facet normal 1.000000 0.000000 0.000000
    outer loop
      vertex 323.000153 13.500013 -325.000000
      vertex 323.000153 -13.499986 -325.000000
      vertex 323.000153 -13.499981 -424.999969
    endloop
  endfacet
  facet normal 1.000000 0.000000 0.000000
    outer loop
      vertex 323.000153 13.500013 -325.000000
      vertex 323.000153 -13.499981 -424.999969
      vertex 323.000153 13.500018 -424.999969
    endloop
  endfacet
  facet normal 0.000000 -0.000000 -1.000000
    outer loop
      vertex 323.000153 13.500018 -424.999969
      vertex 323.000153 -13.499981 -424.999969
      vertex -1192.999756 -13.499981 -424.999969
    endloop
  endfacet
  facet normal -0.000000 0.000000 -1.000000
    outer loop
      vertex 323.000153 13.500018 -424.999969
      vertex -1192.999756 -13.499981 -424.999969
      vertex -1192.999756 13.500018 -424.999969
    endloop
  endfacet
  facet normal -0.000000 1.000000 0.000000
    outer loop
      vertex -1192.999756 13.500013 -325.000000
      vertex 323.000153 13.500013 -325.000000
      vertex 323.000153 13.500018 -424.999969
    endloop
  endfacet
  facet normal 0.000000 1.000000 0.000000
    outer loop
      vertex -1192.999756 13.500013 -325.000000
      vertex 323.000153 13.500018 -424.999969
      vertex -1192.999756 13.500018 -424.999969
    endloop
  endfacet
  facet normal -0.000000 -1.000000 -0.000000
    outer loop
      vertex 323.000153 -13.499986 -325.000000
      vertex -1192.999756 -13.499986 -325.000000
      vertex -1192.999756 -13.499981 -424.999969
    endloop
  endfacet
  facet normal 0.000000 -1.000000 -0.000000
    outer loop
      vertex 323.000153 -13.499986 -325.000000
      vertex -1192.999756 -13.499981 -424.999969
      vertex 323.000153 -13.499981 -424.999969
    endloop
  endfacet
  facet normal -1.000000 0.000000 0.000000
    outer loop
      vertex -1192.999756 13.500027 -624.999939
      vertex -1192.999756 -13.499972 -624.999939
      vertex -1192.999756 -13.499976 -525.000000
    endloop
  endfacet
  facet normal -1.000000 0.000000 0.000000
    outer loop
      vertex -1192.999756 13.500027 -624.999939
      vertex -1192.999756 -13.499976 -525.000000
      vertex -1192.999756 13.500023 -525.000000
    endloop
  endfacet
  facet normal 0.000000 0.000000 1.000000
    outer loop
      vertex -1192.999756 13.500023 -525.000000
      vertex -1192.999756 -13.499976 -525.000000
      vertex 323.000153 -13.499976 -525.000000
    endloop
  endfacet
  facet normal -0.000000 0.000000 1.000000
    outer loop
      vertex -1192.999756 13.500023 -525.000000
      vertex 323.000153 -13.499976 -525.000000
      vertex 323.000153 13.500023 -525.000000
    endloop
  endfacet
  facet normal 1.000000 0.000000 0.000000
    outer loop
      vertex 323.000153 13.500023 -525.000000
      vertex 323.000153 -13.499976 -525.000000
      vertex 323.000153 -13.499972 -624.999939
    endloop
  endfacet
  facet normal 1.000000 0.000000 0.000000
    outer loop
      vertex 323.000153 13.500023 -525.000000
      vertex 323.000153 -13.499972 -624.999939
      vertex 323.000153 13.500027 -624.999939
    endloop
  endfacet
  facet normal 0.000000 -0.000000 -1.000000
    outer loop
      vertex 323.000153 13.500027 -624.999939
      vertex 323.000153 -13.499972 -624.999939
      vertex -1192.999756 -13.499972 -624.999939
    endloop
  endfacet
  facet normal -0.000000 0.000000 -1.000000
    outer loop
      vertex 323.000153 13.500027 -624.999939
      vertex -1192.999756 -13.499972 -624.999939
      vertex -1192.999756 13.500027 -624.999939
    endloop
  endfacet
  facet normal -0.000000 1.000000 0.000000
    outer loop
      vertex -1192.999756 13.500023 -525.000000
      vertex 323.000153 13.500023 -525.000000
      vertex 323.000153 13.500027 -624.999939
    endloop
  endfacet
  facet normal 0.000000 1.000000 0.000000
    outer loop
      vertex -1192.999756 13.500023 -525.000000
      vertex 323.000153 13.500027 -624.999939
      vertex -1192.999756 13.500027 -624.999939
    endloop
  endfacet
  facet normal -0.000000 -1.000000 -0.000000
    outer loop
      vertex 323.000153 -13.499976 -525.000000
      vertex -1192.999756 -13.499976 -525.000000
      vertex -1192.999756 -13.499972 -624.999939
    endloop
  endfacet
  facet normal 0.000000 -1.000000 -0.000000
    outer loop
      vertex 323.000153 -13.499976 -525.000000
      vertex -1192.999756 -13.499972 -624.999939
      vertex 323.000153 -13.499972 -624.999939
    endloop
  endfacet
  facet normal 0.000000 1.000000 0.000000
    outer loop
      vertex 525.000244 13.500030 -677.000000
      vertex 525.000183 13.499986 327.000000
      vertex 625.000183 13.499986 327.000000
    endloop
  endfacet
  facet normal -0.000000 1.000000 0.000000
    outer loop
      vertex 525.000244 13.500030 -677.000000
      vertex 625.000183 13.499986 327.000000
      vertex 625.000244 13.500030 -677.000000
    endloop
  endfacet
  facet normal 0.000000 -0.000000 -1.000000
    outer loop
      vertex 625.000244 13.500030 -677.000000
      vertex 625.000244 -13.499969 -677.000000
      vertex 525.000244 -13.499969 -677.000000
    endloop
  endfacet
  facet normal -0.000000 0.000000 -1.000000
    outer loop
      vertex 625.000244 13.500030 -677.000000
      vertex 525.000244 -13.499969 -677.000000
      vertex 525.000244 13.500030 -677.000000
    endloop
  endfacet
  facet normal 1.000000 0.000000 0.000000
    outer loop
      vertex 625.000183 13.499986 327.000000
      vertex 625.000183 -13.500013 327.000000
      vertex 625.000244 -13.499969 -677.000000
    endloop
  endfacet
  facet normal 1.000000 0.000000 0.000000
    outer loop
      vertex 625.000183 13.499986 327.000000
      vertex 625.000244 -13.499969 -677.000000
      vertex 625.000244 13.500030 -677.000000
    endloop
  endfacet
  facet normal 0.000000 0.000000 1.000000
    outer loop
      vertex 525.000183 13.499986 327.000000
      vertex 525.000183 -13.500013 327.000000
      vertex 625.000183 -13.500013 327.000000
    endloop
  endfacet
  facet normal -0.000000 0.000000 1.000000
    outer loop
      vertex 525.000183 13.499986 327.000000
      vertex 625.000183 -13.500013 327.000000
      vertex 625.000183 13.499986 327.000000
    endloop
  endfacet
  facet normal 0.000000 -1.000000 -0.000000
    outer loop
      vertex 525.000183 -13.500013 327.000000
      vertex 525.000244 -13.499969 -677.000000
      vertex 625.000244 -13.499969 -677.000000
    endloop
  endfacet
  facet normal 0.000000 -1.000000 -0.000000
    outer loop
      vertex 525.000183 -13.500013 327.000000
      vertex 625.000244 -13.499969 -677.000000
      vertex 625.000183 -13.500013 327.000000
    endloop
  endfacet
  facet normal -1.000000 -0.000000 -0.000000
    outer loop
      vertex 525.000244 13.500030 -677.000000
      vertex 525.000244 -13.499969 -677.000000
      vertex 525.000183 -13.500013 327.000000
    endloop
  endfacet
  facet normal -1.000000 0.000000 -0.000000
    outer loop
      vertex 525.000244 13.500030 -677.000000
      vertex 525.000183 -13.500013 327.000000
      vertex 525.000183 13.499986 327.000000
    endloop
  endfacet
  facet normal 0.000000 -0.000000 -1.000000
    outer loop
      vertex 525.000244 13.500030 -677.000000
      vertex 525.000244 -13.499969 -677.000000
      vertex 425.000214 -13.499969 -677.000000
    endloop
  endfacet
  facet normal -0.000000 0.000000 -1.000000
    outer loop
      vertex 525.000244 13.500030 -677.000000
      vertex 425.000214 -13.499969 -677.000000
      vertex 425.000214 13.500030 -677.000000
    endloop
  endfacet
  facet normal -1.000000 -0.000000 -0.000000
    outer loop
      vertex 425.000214 13.500030 -677.000000
      vertex 425.000214 -13.499969 -677.000000
      vertex 425.000183 -13.500013 327.000000
    endloop
  endfacet
  facet normal -1.000000 0.000000 -0.000000
    outer loop
      vertex 425.000214 13.500030 -677.000000
      vertex 425.000183 -13.500013 327.000000
      vertex 425.000183 13.499986 327.000000
    endloop
  endfacet
  facet normal 0.000000 0.000000 1.000000
    outer loop
      vertex 425.000183 13.499986 327.000000
      vertex 425.000183 -13.500013 327.000000
      vertex 525.000183 -13.500013 327.000000
    endloop
  endfacet
  facet normal -0.000000 0.000000 1.000000
    outer loop
      vertex 425.000183 13.499986 327.000000
      vertex 525.000183 -13.500013 327.000000
      vertex 525.000183 13.499986 327.000000
    endloop
  endfacet
  facet normal 1.000000 0.000000 0.000000
    outer loop
      vertex 525.000183 13.499986 327.000000
      vertex 525.000183 -13.500013 327.000000
      vertex 525.000244 -13.499969 -677.000000
    endloop
  endfacet
  facet normal 1.000000 0.000000 0.000000
    outer loop
      vertex 525.000183 13.499986 327.000000
      vertex 525.000244 -13.499969 -677.000000
      vertex 525.000244 13.500030 -677.000000
    endloop
  endfacet
  facet normal 0.000000 1.000000 0.000000
    outer loop
      vertex 425.000214 13.500030 -677.000000
      vertex 425.000183 13.499986 327.000000
      vertex 525.000183 13.499986 327.000000
    endloop
  endfacet
  facet normal -0.000000 1.000000 0.000000
    outer loop
      vertex 425.000214 13.500030 -677.000000
      vertex 525.000183 13.499986 327.000000
      vertex 525.000244 13.500030 -677.000000
    endloop
  endfacet
  facet normal 0.000000 -1.000000 -0.000000
    outer loop
      vertex 425.000183 -13.500013 327.000000
      vertex 425.000214 -13.499969 -677.000000
      vertex 525.000244 -13.499969 -677.000000
    endloop
  endfacet
  facet normal 0.000000 -1.000000 -0.000000
    outer loop
      vertex 425.000183 -13.500013 327.000000
      vertex 525.000244 -13.499969 -677.000000
      vertex 525.000183 -13.500013 327.000000
    endloop
  endfacet
  facet normal 0.000000 1.000000 0.000000
    outer loop
      vertex 325.000214 13.500030 -677.000000
      vertex 325.000183 13.499986 327.000092
      vertex 425.000183 13.499986 327.000092
    endloop
  endfacet
  facet normal -0.000000 1.000000 0.000000
    outer loop
      vertex 325.000214 13.500030 -677.000000
      vertex 425.000183 13.499986 327.000092
      vertex 425.000214 13.500030 -677.000000
    endloop
  endfacet
  facet normal 0.000000 -0.000000 -1.000000
    outer loop
      vertex 425.000214 13.500030 -677.000000
      vertex 425.000214 -13.499969 -677.000000
      vertex 325.000214 -13.499969 -677.000000
    endloop
  endfacet
  facet normal -0.000000 0.000000 -1.000000
    outer loop
      vertex 425.000214 13.500030 -677.000000
      vertex 325.000214 -13.499969 -677.000000
      vertex 325.000214 13.500030 -677.000000
    endloop
  endfacet
  facet normal 1.000000 0.000000 0.000000
    outer loop
      vertex 425.000183 13.499986 327.000092
      vertex 425.000183 -13.500013 327.000092
      vertex 425.000214 -13.499969 -677.000000
    endloop
  endfacet
  facet normal 1.000000 0.000000 0.000000
    outer loop
      vertex 425.000183 13.499986 327.000092
      vertex 425.000214 -13.499969 -677.000000
      vertex 425.000214 13.500030 -677.000000
    endloop
  endfacet
  facet normal 0.000000 0.000000 1.000000
    outer loop
      vertex 325.000183 13.499986 327.000092
      vertex 325.000183 -13.500013 327.000092
      vertex 425.000183 -13.500013 327.000092
    endloop
  endfacet
  facet normal -0.000000 0.000000 1.000000
    outer loop
      vertex 325.000183 13.499986 327.000092
      vertex 425.000183 -13.500013 327.000092
      vertex 425.000183 13.499986 327.000092
    endloop
  endfacet
  facet normal 0.000000 -1.000000 -0.000000
    outer loop
      vertex 325.000183 -13.500013 327.000092
      vertex 325.000214 -13.499969 -677.000000
      vertex 425.000214 -13.499969 -677.000000
    endloop
  endfacet
  facet normal 0.000000 -1.000000 -0.000000
    outer loop
      vertex 325.000183 -13.500013 327.000092
      vertex 425.000214 -13.499969 -677.000000
      vertex 425.000183 -13.500013 327.000092
    endloop
  endfacet
  facet normal -1.000000 -0.000000 -0.000000
    outer loop
      vertex 325.000214 13.500030 -677.000000
      vertex 325.000214 -13.499969 -677.000000
      vertex 325.000183 -13.500013 327.000092
    endloop
  endfacet
  facet normal -1.000000 0.000000 -0.000000
    outer loop
      vertex 325.000214 13.500030 -677.000000
      vertex 325.000183 -13.500013 327.000092
      vertex 325.000183 13.499986 327.000092
    endloop
  endfacet
  facet normal 1.000000 0.000000 0.000000
    outer loop
      vertex 322.999786 -40.499989 424.999908
      vertex 322.999786 -13.499990 424.999908
      vertex 322.999786 -13.499994 524.999939
    endloop
  endfacet
  facet normal 1.000000 0.000000 -0.000000
    outer loop
      vertex 322.999786 -40.499989 424.999908
      vertex 322.999786 -13.499994 524.999939
      vertex 322.999786 -40.499992 524.999939
    endloop
  endfacet
  facet normal 0.000000 -0.000000 1.000000
    outer loop
      vertex 322.999786 -40.499992 524.999939
      vertex 322.999786 -13.499994 524.999939
      vertex -1193.000122 -13.500127 524.999939
    endloop
  endfacet
  facet normal 0.000000 0.000000 1.000000
    outer loop
      vertex 322.999786 -40.499992 524.999939
      vertex -1193.000122 -13.500127 524.999939
      vertex -1193.000122 -40.500122 524.999939
    endloop
  endfacet
  facet normal -1.000000 0.000000 0.000000
    outer loop
      vertex -1193.000122 -40.500122 524.999939
      vertex -1193.000122 -13.500127 524.999939
      vertex -1193.000122 -13.500122 424.999908
    endloop
  endfacet
  facet normal -1.000000 0.000000 0.000000
    outer loop
      vertex -1193.000122 -40.500122 524.999939
      vertex -1193.000122 -13.500122 424.999908
      vertex -1193.000122 -40.500118 424.999908
    endloop
  endfacet
  facet normal 0.000000 0.000000 -1.000000
    outer loop
      vertex -1193.000122 -40.500118 424.999908
      vertex -1193.000122 -13.500122 424.999908
      vertex 322.999786 -13.499990 424.999908
    endloop
  endfacet
  facet normal 0.000000 0.000000 -1.000000
    outer loop
      vertex -1193.000122 -40.500118 424.999908
      vertex 322.999786 -13.499990 424.999908
      vertex 322.999786 -40.499989 424.999908
    endloop
  endfacet
  facet normal 0.000000 -1.000000 -0.000000
    outer loop
      vertex 322.999786 -40.499992 524.999939
      vertex -1193.000122 -40.500122 524.999939
      vertex -1193.000122 -40.500118 424.999908
    endloop
  endfacet
  facet normal 0.000000 -1.000000 -0.000000
    outer loop
      vertex 322.999786 -40.499992 524.999939
      vertex -1193.000122 -40.500118 424.999908
      vertex 322.999786 -40.499989 424.999908
    endloop
  endfacet
  facet normal -0.000000 1.000000 0.000000
    outer loop
      vertex -1193.000122 -13.500127 524.999939
      vertex 322.999786 -13.499994 524.999939
      vertex 322.999786 -13.499990 424.999908
    endloop
  endfacet
  facet normal -0.000000 1.000000 0.000000
    outer loop
      vertex -1193.000122 -13.500127 524.999939
      vertex 322.999786 -13.499990 424.999908
      vertex -1193.000122 -13.500122 424.999908
    endloop
  endfacet
  facet normal 1.000000 0.000000 0.000000
    outer loop
      vertex 322.999786 -40.499992 524.999939
      vertex 322.999786 -13.499994 524.999939
      vertex 322.999786 -13.499997 624.999939
    endloop
  endfacet
  facet normal 1.000000 0.000000 -0.000000
    outer loop
      vertex 322.999786 -40.499992 524.999939
      vertex 322.999786 -13.499997 624.999939
      vertex 322.999786 -40.499996 624.999939
    endloop
  endfacet
  facet normal 0.000000 -0.000000 1.000000
    outer loop
      vertex 322.999786 -40.499996 624.999939
      vertex 322.999786 -13.499997 624.999939
      vertex -1193.000122 -13.500131 624.999939
    endloop
  endfacet
  facet normal 0.000000 0.000000 1.000000
    outer loop
      vertex 322.999786 -40.499996 624.999939
      vertex -1193.000122 -13.500131 624.999939
      vertex -1193.000122 -40.500126 624.999939
    endloop
  endfacet
  facet normal -1.000000 0.000000 0.000000
    outer loop
      vertex -1193.000122 -40.500126 624.999939
      vertex -1193.000122 -13.500131 624.999939
      vertex -1193.000122 -13.500127 524.999939
    endloop
  endfacet
  facet normal -1.000000 0.000000 0.000000
    outer loop
      vertex -1193.000122 -40.500126 624.999939
      vertex -1193.000122 -13.500127 524.999939
      vertex -1193.000122 -40.500122 524.999939
    endloop
  endfacet
  facet normal 0.000000 0.000000 -1.000000
    outer loop
      vertex -1193.000122 -40.500122 524.999939
      vertex -1193.000122 -13.500127 524.999939
      vertex 322.999786 -13.499994 524.999939
    endloop
  endfacet
  facet normal 0.000000 0.000000 -1.000000
    outer loop
      vertex -1193.000122 -40.500122 524.999939
      vertex 322.999786 -13.499994 524.999939
      vertex 322.999786 -40.499992 524.999939
    endloop
  endfacet
  facet normal 0.000000 -1.000000 -0.000000
    outer loop
      vertex 322.999786 -40.499996 624.999939
      vertex -1193.000122 -40.500126 624.999939
      vertex -1193.000122 -40.500122 524.999939
    endloop
  endfacet
  facet normal 0.000000 -1.000000 -0.000000
    outer loop
      vertex 322.999786 -40.499996 624.999939
      vertex -1193.000122 -40.500122 524.999939
      vertex 322.999786 -40.499992 524.999939
    endloop
  endfacet
  facet normal -0.000000 1.000000 0.000000
    outer loop
      vertex -1193.000122 -13.500131 624.999939
      vertex 322.999786 -13.499997 624.999939
      vertex 322.999786 -13.499994 524.999939
    endloop
  endfacet
  facet normal -0.000000 1.000000 0.000000
    outer loop
      vertex -1193.000122 -13.500131 624.999939
      vertex 322.999786 -13.499994 524.999939
      vertex -1193.000122 -13.500127 524.999939
    endloop
  endfacet
  facet normal 1.000000 0.000000 0.000000
    outer loop
      vertex 322.999786 -40.499985 324.999969
      vertex 322.999786 -13.499985 324.999969
      vertex 322.999786 -13.499990 424.999908
    endloop
  endfacet
  facet normal 1.000000 0.000000 -0.000000
    outer loop
      vertex 322.999786 -40.499985 324.999969
      vertex 322.999786 -13.499990 424.999908
      vertex 322.999786 -40.499989 424.999908
    endloop
  endfacet
  facet normal 0.000000 -0.000000 1.000000
    outer loop
      vertex 322.999786 -40.499989 424.999908
      vertex 322.999786 -13.499990 424.999908
      vertex -1193.000122 -13.500122 424.999908
    endloop
  endfacet
  facet normal 0.000000 0.000000 1.000000
    outer loop
      vertex 322.999786 -40.499989 424.999908
      vertex -1193.000122 -13.500122 424.999908
      vertex -1193.000122 -40.500118 424.999908
    endloop
  endfacet
  facet normal -1.000000 0.000000 0.000000
    outer loop
      vertex -1193.000122 -40.500118 424.999908
      vertex -1193.000122 -13.500122 424.999908
      vertex -1193.000122 -13.500117 324.999969
    endloop
  endfacet
  facet normal -1.000000 0.000000 0.000000
    outer loop
      vertex -1193.000122 -40.500118 424.999908
      vertex -1193.000122 -13.500117 324.999969
      vertex -1193.000122 -40.500114 324.999969
    endloop
  endfacet
  facet normal 0.000000 0.000000 -1.000000
    outer loop
      vertex -1193.000122 -40.500114 324.999969
      vertex -1193.000122 -13.500117 324.999969
      vertex 322.999786 -13.499985 324.999969
    endloop
  endfacet
  facet normal 0.000000 0.000000 -1.000000
    outer loop
      vertex -1193.000122 -40.500114 324.999969
      vertex 322.999786 -13.499985 324.999969
      vertex 322.999786 -40.499985 324.999969
    endloop
  endfacet
  facet normal 0.000000 -1.000000 -0.000000
    outer loop
      vertex 322.999786 -40.499989 424.999908
      vertex -1193.000122 -40.500118 424.999908
      vertex -1193.000122 -40.500114 324.999969
    endloop
  endfacet
  facet normal 0.000000 -1.000000 -0.000000
    outer loop
      vertex 322.999786 -40.499989 424.999908
      vertex -1193.000122 -40.500114 324.999969
      vertex 322.999786 -40.499985 324.999969
    endloop
  endfacet
  facet normal -0.000000 1.000000 0.000000
    outer loop
      vertex -1193.000122 -13.500122 424.999908
      vertex 322.999786 -13.499990 424.999908
      vertex 322.999786 -13.499985 324.999969
    endloop
  endfacet
  facet normal -0.000000 1.000000 0.000000
    outer loop
      vertex -1193.000122 -13.500122 424.999908
      vertex 322.999786 -13.499985 324.999969
      vertex -1193.000122 -13.500117 324.999969
    endloop
  endfacet
  facet normal 0.000000 -1.000000 -0.000000
    outer loop
      vertex 424.999786 -40.499943 -327.000000
      vertex 424.999878 -40.499989 676.999939
      vertex 324.999847 -40.500000 676.999939
    endloop
  endfacet
  facet normal 0.000000 -1.000000 -0.000000
    outer loop
      vertex 424.999786 -40.499943 -327.000000
      vertex 324.999847 -40.500000 676.999939
      vertex 324.999847 -40.499954 -327.000000
    endloop
  endfacet
  facet normal 0.000000 0.000000 -1.000000
    outer loop
      vertex 324.999847 -40.499954 -327.000000
      vertex 324.999847 -13.499956 -327.000000
      vertex 424.999786 -13.499949 -327.000000
    endloop
  endfacet
  facet normal 0.000000 0.000000 -1.000000
    outer loop
      vertex 324.999847 -40.499954 -327.000000
      vertex 424.999786 -13.499949 -327.000000
      vertex 424.999786 -40.499943 -327.000000
    endloop
  endfacet
  facet normal -1.000000 0.000000 0.000000
    outer loop
      vertex 324.999847 -40.500000 676.999939
      vertex 324.999847 -13.500000 676.999939
      vertex 324.999847 -13.499956 -327.000000
    endloop
  endfacet
  facet normal -1.000000 0.000000 0.000000
    outer loop
      vertex 324.999847 -40.500000 676.999939
      vertex 324.999847 -13.499956 -327.000000
      vertex 324.999847 -40.499954 -327.000000
    endloop
  endfacet
  facet normal 0.000000 -0.000000 1.000000
    outer loop
      vertex 424.999878 -40.499989 676.999939
      vertex 424.999878 -13.499992 676.999939
      vertex 324.999847 -13.500000 676.999939
    endloop
  endfacet
  facet normal 0.000000 0.000000 1.000000
    outer loop
      vertex 424.999878 -40.499989 676.999939
      vertex 324.999847 -13.500000 676.999939
      vertex 324.999847 -40.500000 676.999939
    endloop
  endfacet
  facet normal -0.000000 1.000000 0.000000
    outer loop
      vertex 424.999878 -13.499992 676.999939
      vertex 424.999786 -13.499949 -327.000000
      vertex 324.999847 -13.499956 -327.000000
    endloop
  endfacet
  facet normal -0.000000 1.000000 0.000000
    outer loop
      vertex 424.999878 -13.499992 676.999939
      vertex 324.999847 -13.499956 -327.000000
      vertex 324.999847 -13.500000 676.999939
    endloop
  endfacet
  facet normal 1.000000 0.000000 -0.000000
    outer loop
      vertex 424.999786 -40.499943 -327.000000
      vertex 424.999786 -13.499949 -327.000000
      vertex 424.999878 -13.499992 676.999939
    endloop
  endfacet
  facet normal 1.000000 0.000000 -0.000000
    outer loop
      vertex 424.999786 -40.499943 -327.000000
      vertex 424.999878 -13.499992 676.999939
      vertex 424.999878 -40.499989 676.999939
    endloop
  endfacet
  facet normal 0.000000 0.000000 -1.000000
    outer loop
      vertex 424.999786 -40.499943 -327.000000
      vertex 424.999786 -13.499949 -327.000000
      vertex 524.999817 -13.499939 -327.000000
    endloop
  endfacet
  facet normal 0.000000 0.000000 -1.000000
    outer loop
      vertex 424.999786 -40.499943 -327.000000
      vertex 524.999817 -13.499939 -327.000000
      vertex 524.999817 -40.499935 -327.000000
    endloop
  endfacet
  facet normal 1.000000 0.000000 -0.000000
    outer loop
      vertex 524.999817 -40.499935 -327.000000
      vertex 524.999817 -13.499939 -327.000000
      vertex 524.999939 -13.499983 676.999939
    endloop
  endfacet
  facet normal 1.000000 0.000000 -0.000000
    outer loop
      vertex 524.999817 -40.499935 -327.000000
      vertex 524.999939 -13.499983 676.999939
      vertex 524.999939 -40.499981 676.999939
    endloop
  endfacet
  facet normal 0.000000 -0.000000 1.000000
    outer loop
      vertex 524.999939 -40.499981 676.999939
      vertex 524.999939 -13.499983 676.999939
      vertex 424.999878 -13.499992 676.999939
    endloop
  endfacet
  facet normal 0.000000 0.000000 1.000000
    outer loop
      vertex 524.999939 -40.499981 676.999939
      vertex 424.999878 -13.499992 676.999939
      vertex 424.999878 -40.499989 676.999939
    endloop
  endfacet
  facet normal -1.000000 0.000000 0.000000
    outer loop
      vertex 424.999878 -40.499989 676.999939
      vertex 424.999878 -13.499992 676.999939
      vertex 424.999786 -13.499949 -327.000000
    endloop
  endfacet
  facet normal -1.000000 0.000000 0.000000
    outer loop
      vertex 424.999878 -40.499989 676.999939
      vertex 424.999786 -13.499949 -327.000000
      vertex 424.999786 -40.499943 -327.000000
    endloop
  endfacet
  facet normal 0.000000 -1.000000 -0.000000
    outer loop
      vertex 524.999817 -40.499935 -327.000000
      vertex 524.999939 -40.499981 676.999939
      vertex 424.999878 -40.499989 676.999939
    endloop
  endfacet
  facet normal 0.000000 -1.000000 -0.000000
    outer loop
      vertex 524.999817 -40.499935 -327.000000
      vertex 424.999878 -40.499989 676.999939
      vertex 424.999786 -40.499943 -327.000000
    endloop
  endfacet
  facet normal -0.000000 1.000000 0.000000
    outer loop
      vertex 524.999939 -13.499983 676.999939
      vertex 524.999817 -13.499939 -327.000000
      vertex 424.999786 -13.499949 -327.000000
    endloop
  endfacet
  facet normal -0.000000 1.000000 0.000000
    outer loop
      vertex 524.999939 -13.499983 676.999939
      vertex 424.999786 -13.499949 -327.000000
      vertex 424.999878 -13.499992 676.999939
    endloop
  endfacet
  facet normal 0.000000 -1.000000 -0.000000
    outer loop
      vertex 624.999878 -40.499928 -327.000000
      vertex 624.999878 -40.499973 677.000000
      vertex 524.999939 -40.499981 677.000000
    endloop
  endfacet
  facet normal 0.000000 -1.000000 -0.000000
    outer loop
      vertex 624.999878 -40.499928 -327.000000
      vertex 524.999939 -40.499981 677.000000
      vertex 524.999817 -40.499935 -327.000000
    endloop
  endfacet
  facet normal 0.000000 0.000000 -1.000000
    outer loop
      vertex 524.999817 -40.499935 -327.000000
      vertex 524.999817 -13.499939 -327.000000
      vertex 624.999878 -13.499930 -327.000000
    endloop
  endfacet
  facet normal 0.000000 0.000000 -1.000000
    outer loop
      vertex 524.999817 -40.499935 -327.000000
      vertex 624.999878 -13.499930 -327.000000
      vertex 624.999878 -40.499928 -327.000000
    endloop
  endfacet
  facet normal -1.000000 0.000000 0.000000
    outer loop
      vertex 524.999939 -40.499981 677.000000
      vertex 524.999939 -13.499983 677.000000
      vertex 524.999817 -13.499939 -327.000000
    endloop
  endfacet
  facet normal -1.000000 0.000000 0.000000
    outer loop
      vertex 524.999939 -40.499981 677.000000
      vertex 524.999817 -13.499939 -327.000000
      vertex 524.999817 -40.499935 -327.000000
    endloop
  endfacet
  facet normal 0.000000 -0.000000 1.000000
    outer loop
      vertex 624.999878 -40.499973 677.000000
      vertex 624.999878 -13.499974 677.000000
      vertex 524.999939 -13.499983 677.000000
    endloop
  endfacet
  facet normal 0.000000 0.000000 1.000000
    outer loop
      vertex 624.999878 -40.499973 677.000000
      vertex 524.999939 -13.499983 677.000000
      vertex 524.999939 -40.499981 677.000000
    endloop
  endfacet
  facet normal -0.000000 1.000000 0.000000
    outer loop
      vertex 624.999878 -13.499974 677.000000
      vertex 624.999878 -13.499930 -327.000000
      vertex 524.999817 -13.499939 -327.000000
    endloop
  endfacet
  facet normal -0.000000 1.000000 0.000000
    outer loop
      vertex 624.999878 -13.499974 677.000000
      vertex 524.999817 -13.499939 -327.000000
      vertex 524.999939 -13.499983 677.000000
    endloop
  endfacet
  facet normal 1.000000 0.000000 0.000000
    outer loop
      vertex 624.999878 -40.499928 -327.000000
      vertex 624.999878 -13.499930 -327.000000
      vertex 624.999878 -13.499974 677.000000
    endloop
  endfacet
  facet normal 1.000000 0.000000 -0.000000
    outer loop
      vertex 624.999878 -40.499928 -327.000000
      vertex 624.999878 -13.499974 677.000000
      vertex 624.999878 -40.499973 677.000000
    endloop
  endfacet
  facet normal 1.000000 0.000000 0.000000
    outer loop
      vertex 1192.999756 -40.499874 -524.999939
      vertex 1192.999756 -13.499872 -524.999939
      vertex 1192.999756 -13.499876 -424.999908
    endloop
  endfacet
  facet normal 1.000000 0.000000 -0.000000
    outer loop
      vertex 1192.999756 -40.499874 -524.999939
      vertex 1192.999756 -13.499876 -424.999908
      vertex 1192.999756 -40.499878 -424.999908
    endloop
  endfacet
  facet normal 0.000000 -0.000000 1.000000
    outer loop
      vertex 1192.999756 -40.499878 -424.999908
      vertex 1192.999756 -13.499876 -424.999908
      vertex -323.000153 -13.500010 -424.999908
    endloop
  endfacet
  facet normal 0.000000 0.000000 1.000000
    outer loop
      vertex 1192.999756 -40.499878 -424.999908
      vertex -323.000153 -13.500010 -424.999908
      vertex -323.000153 -40.500008 -424.999908
    endloop
  endfacet
  facet normal -1.000000 0.000000 0.000000
    outer loop
      vertex -323.000153 -40.500008 -424.999908
      vertex -323.000153 -13.500010 -424.999908
      vertex -323.000153 -13.500005 -524.999939
    endloop
  endfacet
  facet normal -1.000000 0.000000 0.000000
    outer loop
      vertex -323.000153 -40.500008 -424.999908
      vertex -323.000153 -13.500005 -524.999939
      vertex -323.000153 -40.500004 -524.999939
    endloop
  endfacet
  facet normal 0.000000 0.000000 -1.000000
    outer loop
      vertex -323.000153 -40.500004 -524.999939
      vertex -323.000153 -13.500005 -524.999939
      vertex 1192.999756 -13.499872 -524.999939
    endloop
  endfacet
  facet normal 0.000000 0.000000 -1.000000
    outer loop
      vertex -323.000153 -40.500004 -524.999939
      vertex 1192.999756 -13.499872 -524.999939
      vertex 1192.999756 -40.499874 -524.999939
    endloop
  endfacet
  facet normal 0.000000 -1.000000 -0.000000
    outer loop
      vertex 1192.999756 -40.499878 -424.999908
      vertex -323.000153 -40.500008 -424.999908
      vertex -323.000153 -40.500004 -524.999939
    endloop
  endfacet
  facet normal 0.000000 -1.000000 -0.000000
    outer loop
      vertex 1192.999756 -40.499878 -424.999908
      vertex -323.000153 -40.500004 -524.999939
      vertex 1192.999756 -40.499874 -524.999939
    endloop
  endfacet
  facet normal -0.000000 1.000000 0.000000
    outer loop
      vertex -323.000153 -13.500010 -424.999908
      vertex 1192.999756 -13.499876 -424.999908
      vertex 1192.999756 -13.499872 -524.999939
    endloop
  endfacet
  facet normal -0.000000 1.000000 0.000000
    outer loop
      vertex -323.000153 -13.500010 -424.999908
      vertex 1192.999756 -13.499872 -524.999939
      vertex -323.000153 -13.500005 -524.999939
    endloop
  endfacet
  facet normal 1.000000 0.000000 0.000000
    outer loop
      vertex 1192.999756 -40.499878 -424.999908
      vertex 1192.999756 -13.499876 -424.999908
      vertex 1192.999756 -13.499881 -324.999969
    endloop
  endfacet
  facet normal 1.000000 0.000000 -0.000000
    outer loop
      vertex 1192.999756 -40.499878 -424.999908
      vertex 1192.999756 -13.499881 -324.999969
      vertex 1192.999756 -40.499882 -324.999969
    endloop
  endfacet
  facet normal 0.000000 -0.000000 1.000000
    outer loop
      vertex 1192.999756 -40.499882 -324.999969
      vertex 1192.999756 -13.499881 -324.999969
      vertex -323.000153 -13.500014 -324.999969
    endloop
  endfacet
  facet normal 0.000000 0.000000 1.000000
    outer loop
      vertex 1192.999756 -40.499882 -324.999969
      vertex -323.000153 -13.500014 -324.999969
      vertex -323.000153 -40.500011 -324.999969
    endloop
  endfacet
  facet normal -1.000000 0.000000 0.000000
    outer loop
      vertex -323.000153 -40.500011 -324.999969
      vertex -323.000153 -13.500014 -324.999969
      vertex -323.000153 -13.500010 -424.999908
    endloop
  endfacet
  facet normal -1.000000 0.000000 0.000000
    outer loop
      vertex -323.000153 -40.500011 -324.999969
      vertex -323.000153 -13.500010 -424.999908
      vertex -323.000153 -40.500008 -424.999908
    endloop
  endfacet
  facet normal 0.000000 0.000000 -1.000000
    outer loop
      vertex -323.000153 -40.500008 -424.999908
      vertex -323.000153 -13.500010 -424.999908
      vertex 1192.999756 -13.499876 -424.999908
    endloop
  endfacet
  facet normal 0.000000 0.000000 -1.000000
    outer loop
      vertex -323.000153 -40.500008 -424.999908
      vertex 1192.999756 -13.499876 -424.999908
      vertex 1192.999756 -40.499878 -424.999908
    endloop
  endfacet
  facet normal 0.000000 -1.000000 -0.000000
    outer loop
      vertex 1192.999756 -40.499882 -324.999969
      vertex -323.000153 -40.500011 -324.999969
      vertex -323.000153 -40.500008 -424.999908
    endloop
  endfacet
  facet normal 0.000000 -1.000000 -0.000000
    outer loop
      vertex 1192.999756 -40.499882 -324.999969
      vertex -323.000153 -40.500008 -424.999908
      vertex 1192.999756 -40.499878 -424.999908
    endloop
  endfacet
  facet normal -0.000000 1.000000 0.000000
    outer loop
      vertex -323.000153 -13.500014 -324.999969
      vertex 1192.999756 -13.499881 -324.999969
      vertex 1192.999756 -13.499876 -424.999908
    endloop
  endfacet
  facet normal -0.000000 1.000000 0.000000
    outer loop
      vertex -323.000153 -13.500014 -324.999969
      vertex 1192.999756 -13.499876 -424.999908
      vertex -323.000153 -13.500010 -424.999908
    endloop
  endfacet
  facet normal 1.000000 0.000000 0.000000
    outer loop
      vertex 1192.999756 -40.499870 -624.999939
      vertex 1192.999756 -13.499868 -624.999939
      vertex 1192.999756 -13.499872 -524.999939
    endloop
  endfacet
  facet normal 1.000000 0.000000 -0.000000
    outer loop
      vertex 1192.999756 -40.499870 -624.999939
      vertex 1192.999756 -13.499872 -524.999939
      vertex 1192.999756 -40.499874 -524.999939
    endloop
  endfacet
  facet normal 0.000000 -0.000000 1.000000
    outer loop
      vertex 1192.999756 -40.499874 -524.999939
      vertex 1192.999756 -13.499872 -524.999939
      vertex -323.000153 -13.500005 -524.999939
    endloop
  endfacet
  facet normal 0.000000 0.000000 1.000000
    outer loop
      vertex 1192.999756 -40.499874 -524.999939
      vertex -323.000153 -13.500005 -524.999939
      vertex -323.000153 -40.500004 -524.999939
    endloop
  endfacet
  facet normal -1.000000 0.000000 0.000000
    outer loop
      vertex -323.000153 -40.500004 -524.999939
      vertex -323.000153 -13.500005 -524.999939
      vertex -323.000153 -13.500001 -624.999939
    endloop
  endfacet
  facet normal -1.000000 0.000000 0.000000
    outer loop
      vertex -323.000153 -40.500004 -524.999939
      vertex -323.000153 -13.500001 -624.999939
      vertex -323.000153 -40.500000 -624.999939
    endloop
  endfacet
  facet normal 0.000000 0.000000 -1.000000
    outer loop
      vertex -323.000153 -40.500000 -624.999939
      vertex -323.000153 -13.500001 -624.999939
      vertex 1192.999756 -13.499868 -624.999939
    endloop
  endfacet
  facet normal 0.000000 0.000000 -1.000000
    outer loop
      vertex -323.000153 -40.500000 -624.999939
      vertex 1192.999756 -13.499868 -624.999939
      vertex 1192.999756 -40.499870 -624.999939
    endloop
  endfacet
  facet normal 0.000000 -1.000000 -0.000000
    outer loop
      vertex 1192.999756 -40.499874 -524.999939
      vertex -323.000153 -40.500004 -524.999939
      vertex -323.000153 -40.500000 -624.999939
    endloop
  endfacet
  facet normal 0.000000 -1.000000 -0.000000
    outer loop
      vertex 1192.999756 -40.499874 -524.999939
      vertex -323.000153 -40.500000 -624.999939
      vertex 1192.999756 -40.499870 -624.999939
    endloop
  endfacet
  facet normal -0.000000 1.000000 0.000000
    outer loop
      vertex -323.000153 -13.500005 -524.999939
      vertex 1192.999756 -13.499872 -524.999939
      vertex 1192.999756 -13.499868 -624.999939
    endloop
  endfacet
  facet normal -0.000000 1.000000 0.000000
    outer loop
      vertex -323.000153 -13.500005 -524.999939
      vertex 1192.999756 -13.499868 -624.999939
      vertex -323.000153 -13.500001 -624.999939
    endloop
  endfacet
  facet normal 0.000000 -1.000000 -0.000000
    outer loop
      vertex -525.000244 -40.500015 -677.000000
      vertex -525.000183 -40.500061 326.999969
      vertex -625.000183 -40.500069 326.999969
    endloop
  endfacet
  facet normal 0.000000 -1.000000 -0.000000
    outer loop
      vertex -525.000244 -40.500015 -677.000000
      vertex -625.000183 -40.500069 326.999969
      vertex -625.000244 -40.500023 -677.000000
    endloop
  endfacet
  facet normal 0.000000 0.000000 -1.000000
    outer loop
      vertex -625.000244 -40.500023 -677.000000
      vertex -625.000244 -13.500025 -677.000000
      vertex -525.000244 -13.500014 -677.000000
    endloop
  endfacet
  facet normal 0.000000 0.000000 -1.000000
    outer loop
      vertex -625.000244 -40.500023 -677.000000
      vertex -525.000244 -13.500014 -677.000000
      vertex -525.000244 -40.500015 -677.000000
    endloop
  endfacet
  facet normal -1.000000 0.000000 0.000000
    outer loop
      vertex -625.000183 -40.500069 326.999969
      vertex -625.000183 -13.500069 326.999969
      vertex -625.000244 -13.500025 -677.000000
    endloop
  endfacet
  facet normal -1.000000 0.000000 0.000000
    outer loop
      vertex -625.000183 -40.500069 326.999969
      vertex -625.000244 -13.500025 -677.000000
      vertex -625.000244 -40.500023 -677.000000
    endloop
  endfacet
  facet normal 0.000000 -0.000000 1.000000
    outer loop
      vertex -525.000183 -40.500061 326.999969
      vertex -525.000183 -13.500058 326.999969
      vertex -625.000183 -13.500069 326.999969
    endloop
  endfacet
  facet normal 0.000000 0.000000 1.000000
    outer loop
      vertex -525.000183 -40.500061 326.999969
      vertex -625.000183 -13.500069 326.999969
      vertex -625.000183 -40.500069 326.999969
    endloop
  endfacet
  facet normal -0.000000 1.000000 0.000000
    outer loop
      vertex -525.000183 -13.500058 326.999969
      vertex -525.000244 -13.500014 -677.000000
      vertex -625.000244 -13.500025 -677.000000
    endloop
  endfacet
  facet normal -0.000000 1.000000 0.000000
    outer loop
      vertex -525.000183 -13.500058 326.999969
      vertex -625.000244 -13.500025 -677.000000
      vertex -625.000183 -13.500069 326.999969
    endloop
  endfacet
  facet normal 1.000000 0.000000 -0.000000
    outer loop
      vertex -525.000244 -40.500015 -677.000000
      vertex -525.000244 -13.500014 -677.000000
      vertex -525.000183 -13.500058 326.999969
    endloop
  endfacet
  facet normal 1.000000 0.000000 -0.000000
    outer loop
      vertex -525.000244 -40.500015 -677.000000
      vertex -525.000183 -13.500058 326.999969
      vertex -525.000183 -40.500061 326.999969
    endloop
  endfacet
  facet normal 0.000000 0.000000 -1.000000
    outer loop
      vertex -525.000244 -40.500015 -677.000000
      vertex -525.000244 -13.500014 -677.000000
      vertex -425.000214 -13.500007 -677.000000
    endloop
  endfacet
  facet normal 0.000000 0.000000 -1.000000
    outer loop
      vertex -525.000244 -40.500015 -677.000000
      vertex -425.000214 -13.500007 -677.000000
      vertex -425.000214 -40.500008 -677.000000
    endloop
  endfacet
  facet normal 1.000000 0.000000 -0.000000
    outer loop
      vertex -425.000214 -40.500008 -677.000000
      vertex -425.000214 -13.500007 -677.000000
      vertex -425.000183 -13.500051 326.999969
    endloop
  endfacet
  facet normal 1.000000 0.000000 -0.000000
    outer loop
      vertex -425.000214 -40.500008 -677.000000
      vertex -425.000183 -13.500051 326.999969
      vertex -425.000183 -40.500053 326.999969
    endloop
  endfacet
  facet normal 0.000000 -0.000000 1.000000
    outer loop
      vertex -425.000183 -40.500053 326.999969
      vertex -425.000183 -13.500051 326.999969
      vertex -525.000183 -13.500058 326.999969
    endloop
  endfacet
  facet normal 0.000000 0.000000 1.000000
    outer loop
      vertex -425.000183 -40.500053 326.999969
      vertex -525.000183 -13.500058 326.999969
      vertex -525.000183 -40.500061 326.999969
    endloop
  endfacet
  facet normal -1.000000 0.000000 0.000000
    outer loop
      vertex -525.000183 -40.500061 326.999969
      vertex -525.000183 -13.500058 326.999969
      vertex -525.000244 -13.500014 -677.000000
    endloop
  endfacet
  facet normal -1.000000 0.000000 0.000000
    outer loop
      vertex -525.000183 -40.500061 326.999969
      vertex -525.000244 -13.500014 -677.000000
      vertex -525.000244 -40.500015 -677.000000
    endloop
  endfacet
  facet normal 0.000000 -1.000000 -0.000000
    outer loop
      vertex -425.000214 -40.500008 -677.000000
      vertex -425.000183 -40.500053 326.999969
      vertex -525.000183 -40.500061 326.999969
    endloop
  endfacet
  facet normal 0.000000 -1.000000 -0.000000
    outer loop
      vertex -425.000214 -40.500008 -677.000000
      vertex -525.000183 -40.500061 326.999969
      vertex -525.000244 -40.500015 -677.000000
    endloop
  endfacet
  facet normal -0.000000 1.000000 0.000000
    outer loop
      vertex -425.000183 -13.500051 326.999969
      vertex -425.000214 -13.500007 -677.000000
      vertex -525.000244 -13.500014 -677.000000
    endloop
  endfacet
  facet normal -0.000000 1.000000 0.000000
    outer loop
      vertex -425.000183 -13.500051 326.999969
      vertex -525.000244 -13.500014 -677.000000
      vertex -525.000183 -13.500058 326.999969
    endloop
  endfacet
  facet normal 0.000000 -1.000000 -0.000000
    outer loop
      vertex -325.000214 -40.499996 -677.000000
      vertex -325.000183 -40.500042 327.000061
      vertex -425.000183 -40.500053 327.000061
    endloop
  endfacet
  facet normal 0.000000 -1.000000 -0.000000
    outer loop
      vertex -325.000214 -40.499996 -677.000000
      vertex -425.000183 -40.500053 327.000061
      vertex -425.000214 -40.500008 -677.000000
    endloop
  endfacet
  facet normal 0.000000 0.000000 -1.000000
    outer loop
      vertex -425.000214 -40.500008 -677.000000
      vertex -425.000214 -13.500007 -677.000000
      vertex -325.000214 -13.499998 -677.000000
    endloop
  endfacet
  facet normal 0.000000 0.000000 -1.000000
    outer loop
      vertex -425.000214 -40.500008 -677.000000
      vertex -325.000214 -13.499998 -677.000000
      vertex -325.000214 -40.499996 -677.000000
    endloop
  endfacet
  facet normal -1.000000 0.000000 0.000000
    outer loop
      vertex -425.000183 -40.500053 327.000061
      vertex -425.000183 -13.500051 327.000061
      vertex -425.000214 -13.500007 -677.000000
    endloop
  endfacet
  facet normal -1.000000 0.000000 0.000000
    outer loop
      vertex -425.000183 -40.500053 327.000061
      vertex -425.000214 -13.500007 -677.000000
      vertex -425.000214 -40.500008 -677.000000
    endloop
  endfacet
  facet normal 0.000000 -0.000000 1.000000
    outer loop
      vertex -325.000183 -40.500042 327.000061
      vertex -325.000183 -13.500042 327.000061
      vertex -425.000183 -13.500051 327.000061
    endloop
  endfacet
  facet normal 0.000000 0.000000 1.000000
    outer loop
      vertex -325.000183 -40.500042 327.000061
      vertex -425.000183 -13.500051 327.000061
      vertex -425.000183 -40.500053 327.000061
    endloop
  endfacet
  facet normal -0.000000 1.000000 0.000000
    outer loop
      vertex -325.000183 -13.500042 327.000061
      vertex -325.000214 -13.499998 -677.000000
      vertex -425.000214 -13.500007 -677.000000
    endloop
  endfacet
  facet normal -0.000000 1.000000 0.000000
    outer loop
      vertex -325.000183 -13.500042 327.000061
      vertex -425.000214 -13.500007 -677.000000
      vertex -425.000183 -13.500051 327.000061
    endloop
  endfacet
  facet normal 1.000000 0.000000 -0.000000
    outer loop
      vertex -325.000214 -40.499996 -677.000000
      vertex -325.000214 -13.499998 -677.000000
      vertex -325.000183 -13.500042 327.000061
    endloop
  endfacet
  facet normal 1.000000 0.000000 -0.000000
    outer loop
      vertex -325.000214 -40.499996 -677.000000
      vertex -325.000183 -13.500042 327.000061
      vertex -325.000183 -40.500042 327.000061
    endloop
  endfacet
endsolid Mesh
