solid mXU3
  facet normal 0.000000 0.000000 -1.000000
    outer loop
      vertex -625.000000 -40.500000 -677.000000
      vertex -625.000000 -13.500000 -677.000000
      vertex -525.000000 -13.500000 -677.000000
    endloop
  endfacet
  facet normal 0.000000 0.000000 -1.000000
    outer loop
      vertex -625.000000 -40.500000 -677.000000
      vertex -525.000000 -13.500000 -677.000000
      vertex -525.000000 -40.500000 -677.000000
    endloop
  endfacet
  facet normal 0.000000 -1.000000 0.000000
    outer loop
      vertex -525.000000 -40.500000 -677.000000
      vertex -525.000000 -40.500000 327.000000
      vertex -625.000000 -40.500000 327.000000
    endloop
  endfacet
  facet normal 0.000000 -1.000000 0.000000
    outer loop
      vertex -525.000000 -40.500000 -677.000000
      vertex -625.000000 -40.500000 327.000000
      vertex -625.000000 -40.500000 -677.000000
    endloop
  endfacet
  facet normal -1.000000 0.000000 0.000000
    outer loop
      vertex -625.000000 -40.500000 327.000000
      vertex -625.000000 -13.500000 327.000000
      vertex -625.000000 -13.500000 -677.000000
    endloop
  endfacet
  facet normal -1.000000 0.000000 0.000000
    outer loop
      vertex -625.000000 -40.500000 327.000000
      vertex -625.000000 -13.500000 -677.000000
      vertex -625.000000 -40.500000 -677.000000
    endloop
  endfacet
  facet normal 0.000000 -0.000000 1.000000
    outer loop
      vertex -525.000000 -40.500000 327.000000
      vertex -525.000000 -13.500000 327.000000
      vertex -625.000000 -13.500000 327.000000
    endloop
  endfacet
  facet normal 0.000000 0.000000 1.000000
    outer loop
      vertex -525.000000 -40.500000 327.000000
      vertex -625.000000 -13.500000 327.000000
      vertex -625.000000 -40.500000 327.000000
    endloop
  endfacet
  facet normal 0.000000 1.000000 0.000000
    outer loop
      vertex -525.000000 -13.500000 327.000000
      vertex -525.000000 -13.500000 -677.000000
      vertex -625.000000 -13.500000 -677.000000
    endloop
  endfacet
  facet normal 0.000000 1.000000 0.000000
    outer loop
      vertex -525.000000 -13.500000 327.000000
      vertex -625.000000 -13.500000 -677.000000
      vertex -625.000000 -13.500000 327.000000
    endloop
  endfacet
  facet normal 1.000000 0.000000 0.000000
    outer loop
      vertex -525.000000 -40.500000 -677.000000
      vertex -525.000000 -13.500000 -677.000000
      vertex -525.000000 -13.500000 327.000000
    endloop
  endfacet
  facet normal 1.000000 0.000000 0.000000
    outer loop
      vertex -525.000000 -40.500000 -677.000000
      vertex -525.000000 -13.500000 327.000000
      vertex -525.000000 -40.500000 327.000000
    endloop
  endfacet
endsolid Mesh
