solid ZD3
  facet normal -0.000000 1.000000 0.000000
    outer loop
      vertex -323.000000 13.500000 625.000000
      vertex 1193.000000 13.500000 625.000000
      vertex 1193.000000 13.500000 525.000000
    endloop
  endfacet
  facet normal 0.000000 1.000000 0.000000
    outer loop
      vertex -323.000000 13.500000 625.000000
      vertex 1193.000000 13.500000 525.000000
      vertex -323.000000 13.500000 525.000000
    endloop
  endfacet
  facet normal -1.000000 0.000000 0.000000
    outer loop
      vertex -323.000000 13.500000 525.000000
      vertex -323.000000 -13.500000 525.000000
      vertex -323.000000 -13.500000 625.000000
    endloop
  endfacet
  facet normal -1.000000 0.000000 0.000000
    outer loop
      vertex -323.000000 13.500000 525.000000
      vertex -323.000000 -13.500000 625.000000
      vertex -323.000000 13.500000 625.000000
    endloop
  endfacet
  facet normal 0.000000 -0.000000 -1.000000
    outer loop
      vertex 1193.000000 13.500000 525.000000
      vertex 1193.000000 -13.500000 525.000000
      vertex -323.000000 -13.500000 525.000000
    endloop
  endfacet
  facet normal -0.000000 0.000000 -1.000000
    outer loop
      vertex 1193.000000 13.500000 525.000000
      vertex -323.000000 -13.500000 525.000000
      vertex -323.000000 13.500000 525.000000
    endloop
  endfacet
  facet normal 1.000000 0.000000 0.000000
    outer loop
      vertex 1193.000000 13.500000 625.000000
      vertex 1193.000000 -13.500000 625.000000
      vertex 1193.000000 -13.500000 525.000000
    endloop
  endfacet
  facet normal 1.000000 0.000000 0.000000
    outer loop
      vertex 1193.000000 13.500000 625.000000
      vertex 1193.000000 -13.500000 525.000000
      vertex 1193.000000 13.500000 525.000000
    endloop
  endfacet
  facet normal -0.000000 -1.000000 0.000000
    outer loop
      vertex 1193.000000 -13.500000 625.000000
      vertex -323.000000 -13.500000 625.000000
      vertex -323.000000 -13.500000 525.000000
    endloop
  endfacet
  facet normal 0.000000 -1.000000 -0.000000
    outer loop
      vertex 1193.000000 -13.500000 625.000000
      vertex -323.000000 -13.500000 525.000000
      vertex 1193.000000 -13.500000 525.000000
    endloop
  endfacet
  facet normal 0.000000 0.000000 1.000000
    outer loop
      vertex -323.000000 13.500000 625.000000
      vertex -323.000000 -13.500000 625.000000
      vertex 1193.000000 -13.500000 625.000000
    endloop
  endfacet
  facet normal -0.000000 0.000000 1.000000
    outer loop
      vertex -323.000000 13.500000 625.000000
      vertex 1193.000000 -13.500000 625.000000
      vertex 1193.000000 13.500000 625.000000
    endloop
  endfacet
endsolid Mesh
